inDegrees=no
num_controls=7
num_derivatives=13
num_iterations=147
num_multipliers=7
num_parameters=0
num_slacks=7
num_states=26
objective=5.304989
objective_accelerations=0.426804
objective_balance=0.003720
objective_effort=0.379808
objective_height=4.419811
objective_ligament=0.074846
solver_duration=1289.498861
status=Solve_Succeeded
success=true
DataType=double
version=3
OpenSimVersion=4.4-2022-07-23-0e9fedc
endheader
time	/jointset/ground_pelvis/pelvis_tilt/value	/jointset/ground_pelvis/pelvis_tx/value	/jointset/ground_pelvis/pelvis_ty/value	/jointset/hip_r/hip_flexion_r/value	/jointset/hip_r/hip_adduction_r/value	/jointset/hip_r/hip_rotation_r/value	/jointset/back/lumbar_extension/value	/jointset/patellofemoral_r/patellar_flexion_r/value	/jointset/knee_r/knee_flexion_r/value	/jointset/knee_r/knee_adduction_r/value	/jointset/knee_r/knee_rotation_r/value	/jointset/ankle_r/ankle_angle_r/value	/jointset/subtalar_r/subtalar_angle_r/value	/jointset/ground_pelvis/pelvis_tilt/speed	/jointset/ground_pelvis/pelvis_tx/speed	/jointset/ground_pelvis/pelvis_ty/speed	/jointset/hip_r/hip_flexion_r/speed	/jointset/hip_r/hip_adduction_r/speed	/jointset/hip_r/hip_rotation_r/speed	/jointset/back/lumbar_extension/speed	/jointset/patellofemoral_r/patellar_flexion_r/speed	/jointset/knee_r/knee_flexion_r/speed	/jointset/knee_r/knee_adduction_r/speed	/jointset/knee_r/knee_rotation_r/speed	/jointset/ankle_r/ankle_angle_r/speed	/jointset/subtalar_r/subtalar_angle_r/speed	/forceset/tau_hip_flexion_r	/forceset/tau_hip_adduction_r	/forceset/tau_hip_rotation_r	/forceset/tau_knee_flexion_r	/forceset/tau_ankle_angle_r	/forceset/tau_subtalar_angle_r	/forceset/tau_lumbar_extension	lambda_cid13_p0	lambda_cid14_p0	lambda_cid14_p1	lambda_cid14_p2	lambda_cid14_p3	lambda_cid14_p4	lambda_cid14_p5	/jointset/ground_pelvis/pelvis_tilt/accel	/jointset/ground_pelvis/pelvis_tx/accel	/jointset/ground_pelvis/pelvis_ty/accel	/jointset/hip_r/hip_flexion_r/accel	/jointset/hip_r/hip_adduction_r/accel	/jointset/hip_r/hip_rotation_r/accel	/jointset/back/lumbar_extension/accel	/jointset/patellofemoral_r/patellar_flexion_r/accel	/jointset/knee_r/knee_flexion_r/accel	/jointset/knee_r/knee_adduction_r/accel	/jointset/knee_r/knee_rotation_r/accel	/jointset/ankle_r/ankle_angle_r/accel	/jointset/subtalar_r/subtalar_angle_r/accel	gamma_cid13_p0	gamma_cid14_p0	gamma_cid14_p1	gamma_cid14_p2	gamma_cid14_p3	gamma_cid14_p4	gamma_cid14_p5
0.5	-0.07439244354821344	0.04944664522985222	0.8378961446370365	0.7244149208452422	-0.2481466024103491	-0.08319274709066829	-0.6319718508483596	0.8583249920740753	0.8583249920740744	0.05900826954259741	0.1744189323333753	0.2816618731046417	0.09455486130843985	-0.1939042694089223	-0.1605718103470801	-0.3702022837365773	1.413552998393364	-0.05473442828179202	0.4414298117394868	-0.7406720154630979	1.677345744758543	1.677345744758557	-0.07197379317159451	-0.001734683589417973	0.5228426986722278	0.08890761620560993	-0.1574402139204514	-0.005238322746708916	0.03063427630692322	-0.2860587971648704	-0.006492019299154704	-0.008304467745589057	0.2157735536815599	-13.06251859132072	-45.26616180611305	-9.096847701695166	-0.9097750438679548	-2.629752734230896	-647.7103608058561	65.81727782210417	0.1380413607949793	0.4436968158106778	-0.2897414847418715	-1.033040526899046	0.1394403008999142	-0.08319197679222466	1.54102067876213	-1.197256921268628	-1.197256921268636	0.5080056388815326	-0.02076181163972621	-0.341615607288151	0.1387607718498181	-4.030993819263666e-08	1.291108151317886e-09	5.051532611740491e-07	-1.665123956101814e-07	-5.821455660594831e-08	-5.48550330638148e-08	3.53600756303696e-07
0.51	-0.0763243411251055	0.04786325056350361	0.8341804220611019	0.7384968889551586	-0.2486870866070209	-0.07878352786801364	-0.6393005619009252	0.8750362059905246	0.875036205990521	0.05831395166635424	0.1744012322287062	0.2868723578883284	0.09545047851636168	-0.1924437753964248	-0.156093469729804	-0.3728610249010278	1.402645973748392	-0.05335280446554932	0.4403590405632358	-0.72498131040648	1.664666507927107	1.664666507927092	-0.06690904088931672	-0.00179951139866775	0.5191816742507808	0.09021108066156927	-0.162391732875527	-0.004468299041434416	0.03136781411195675	-0.2901803024801703	-0.008022925026780883	-0.00793016977808428	0.2206388501953584	-12.18720208560369	-45.96590416785273	-9.155897618370648	-0.7871786630421599	-2.477214323034997	-651.2862752983061	66.15548899138759	0.154774117578723	0.4519384470186564	-0.2417694423256658	-1.148730718823408	0.1389787229536745	-0.1273253445287163	1.59642811566845	-1.33782915591322	-1.337829155917566	0.5028895778059177	0.001516403256013697	-0.3892453444749599	0.1254904864806556	-3.459976626258233e-08	9.13855140447361e-09	5.12465439064874e-07	-1.170910064884133e-07	-6.346005838255879e-08	-4.614254169889491e-08	3.525011673847062e-07
0.52	-0.07824068962265029	0.04632504645579411	0.830440546271517	0.7524639473615143	-0.2492134635053301	-0.07438667748842924	-0.6464696993636141	0.8916137131203009	0.891613713120286	0.05766971722393047	0.1743830557796887	0.2920440525308214	0.09635900060964593	-0.1907944535398651	-0.1515336986192612	-0.3750329264666269	1.390571057682331	-0.05191296861060879	0.4389560431275006	-0.7087572974875853	1.650604387422387	1.650604387422344	-0.0619571064108366	-0.001829952454969738	0.5150846704332541	0.0914885932779934	-0.1673432518306556	-0.003698275336196447	0.03210135191689337	-0.2943018077954793	-0.009553830754415007	-0.007555871810635782	0.2255041467091162	-11.31311496907217	-46.66920975147367	-9.21415796295731	-0.6663231123346299	-2.339467301874243	-654.9205914202739	66.52012975655846	0.1758069296073837	0.4599829144640313	-0.192373564971584	-1.266618811116943	0.1510827086394745	-0.1496372286890401	1.647682251217435	-1.473833655925295	-1.473833655925304	0.4854420781220089	-0.013884461050171	-0.4288114865040675	0.1335704039427746	-2.875133608492808e-08	1.655720811890271e-08	5.19192749636917e-07	-6.780608744954171e-08	-6.8262454292602e-08	-3.842542281685879e-08	3.530429762407414e-07
0.53	-0.08013963169775479	0.04483279395092733	0.826681406514773	0.7663045493612821	-0.2497251168034493	-0.07000568461307953	-0.6534740446935025	0.9080438084498705	0.908043808449863	0.05707415958149823	0.1743647632242033	0.2971726494627517	0.09728023549542812	-0.1889645760602196	-0.1469081274567229	-0.3767115356040653	1.377364222859528	-0.05040817769770281	0.4371836709489987	-0.6920346852255103	1.635194199251463	1.635194199251419	-0.0571832727325161	-0.001825705932673059	0.5105653974278848	0.09275455183524299	-0.1721821496996326	-0.00292908263458273	0.03281838594185506	-0.2984240263374698	-0.0111371021873811	-0.007221964757925916	0.230249649221421	-10.44280555487804	-47.39402251268733	-9.296554206744878	-0.538388582648664	-2.138490137173417	-658.5474389356518	66.85339182066474	0.190987711328427	0.4651312947820881	-0.1430880708106965	-1.375481506229568	0.151632120319387	-0.1999116670254122	1.696113203416839	-1.607678147845232	-1.607678147845342	0.469097487871836	0.008013566481962471	-0.4738947972616947	0.1226105062147243	-2.475597253553879e-08	2.700777962852159e-08	5.992220420355102e-07	-1.165135504125126e-08	-8.165620996429642e-08	-3.510030978115749e-08	4.062638840314084e-07
